<?xml version="1.0" encoding="utf-8"?>
<!DOCTYPE svg PUBLIC "-//W3C//DTD SVG 1.0//EN" "http://www.w3.org/TR/2001/REC-SVG-20010904/DTD/svg10.dtd">
<svg xmlns="http://www.w3.org/2000/svg" xml:space="preserve" xmlns:xlink="http://www.w3.org/1999/xlink" width="105" height="105" viewBox="0 0 105 105">
<desc></desc>
<rect width="105" height="105" fill="#ffffff" cx="0" cy="0" />
<defs>
<rect id="p" width="3" height="3" />
</defs>
<g fill="#000000">
<use x="9" y="9" xlink:href="#p" />
<use x="12" y="9" xlink:href="#p" />
<use x="15" y="9" xlink:href="#p" />
<use x="18" y="9" xlink:href="#p" />
<use x="21" y="9" xlink:href="#p" />
<use x="24" y="9" xlink:href="#p" />
<use x="27" y="9" xlink:href="#p" />
<use x="36" y="9" xlink:href="#p" />
<use x="57" y="9" xlink:href="#p" />
<use x="63" y="9" xlink:href="#p" />
<use x="66" y="9" xlink:href="#p" />
<use x="69" y="9" xlink:href="#p" />
<use x="75" y="9" xlink:href="#p" />
<use x="78" y="9" xlink:href="#p" />
<use x="81" y="9" xlink:href="#p" />
<use x="84" y="9" xlink:href="#p" />
<use x="87" y="9" xlink:href="#p" />
<use x="90" y="9" xlink:href="#p" />
<use x="93" y="9" xlink:href="#p" />
<use x="9" y="12" xlink:href="#p" />
<use x="27" y="12" xlink:href="#p" />
<use x="33" y="12" xlink:href="#p" />
<use x="36" y="12" xlink:href="#p" />
<use x="42" y="12" xlink:href="#p" />
<use x="45" y="12" xlink:href="#p" />
<use x="48" y="12" xlink:href="#p" />
<use x="54" y="12" xlink:href="#p" />
<use x="57" y="12" xlink:href="#p" />
<use x="69" y="12" xlink:href="#p" />
<use x="75" y="12" xlink:href="#p" />
<use x="93" y="12" xlink:href="#p" />
<use x="9" y="15" xlink:href="#p" />
<use x="15" y="15" xlink:href="#p" />
<use x="18" y="15" xlink:href="#p" />
<use x="21" y="15" xlink:href="#p" />
<use x="27" y="15" xlink:href="#p" />
<use x="36" y="15" xlink:href="#p" />
<use x="39" y="15" xlink:href="#p" />
<use x="42" y="15" xlink:href="#p" />
<use x="51" y="15" xlink:href="#p" />
<use x="54" y="15" xlink:href="#p" />
<use x="57" y="15" xlink:href="#p" />
<use x="66" y="15" xlink:href="#p" />
<use x="69" y="15" xlink:href="#p" />
<use x="75" y="15" xlink:href="#p" />
<use x="81" y="15" xlink:href="#p" />
<use x="84" y="15" xlink:href="#p" />
<use x="87" y="15" xlink:href="#p" />
<use x="93" y="15" xlink:href="#p" />
<use x="9" y="18" xlink:href="#p" />
<use x="15" y="18" xlink:href="#p" />
<use x="18" y="18" xlink:href="#p" />
<use x="21" y="18" xlink:href="#p" />
<use x="27" y="18" xlink:href="#p" />
<use x="33" y="18" xlink:href="#p" />
<use x="36" y="18" xlink:href="#p" />
<use x="42" y="18" xlink:href="#p" />
<use x="48" y="18" xlink:href="#p" />
<use x="51" y="18" xlink:href="#p" />
<use x="60" y="18" xlink:href="#p" />
<use x="66" y="18" xlink:href="#p" />
<use x="75" y="18" xlink:href="#p" />
<use x="81" y="18" xlink:href="#p" />
<use x="84" y="18" xlink:href="#p" />
<use x="87" y="18" xlink:href="#p" />
<use x="93" y="18" xlink:href="#p" />
<use x="9" y="21" xlink:href="#p" />
<use x="15" y="21" xlink:href="#p" />
<use x="18" y="21" xlink:href="#p" />
<use x="21" y="21" xlink:href="#p" />
<use x="27" y="21" xlink:href="#p" />
<use x="39" y="21" xlink:href="#p" />
<use x="45" y="21" xlink:href="#p" />
<use x="48" y="21" xlink:href="#p" />
<use x="60" y="21" xlink:href="#p" />
<use x="63" y="21" xlink:href="#p" />
<use x="66" y="21" xlink:href="#p" />
<use x="75" y="21" xlink:href="#p" />
<use x="81" y="21" xlink:href="#p" />
<use x="84" y="21" xlink:href="#p" />
<use x="87" y="21" xlink:href="#p" />
<use x="93" y="21" xlink:href="#p" />
<use x="9" y="24" xlink:href="#p" />
<use x="27" y="24" xlink:href="#p" />
<use x="33" y="24" xlink:href="#p" />
<use x="39" y="24" xlink:href="#p" />
<use x="48" y="24" xlink:href="#p" />
<use x="51" y="24" xlink:href="#p" />
<use x="54" y="24" xlink:href="#p" />
<use x="60" y="24" xlink:href="#p" />
<use x="69" y="24" xlink:href="#p" />
<use x="75" y="24" xlink:href="#p" />
<use x="93" y="24" xlink:href="#p" />
<use x="9" y="27" xlink:href="#p" />
<use x="12" y="27" xlink:href="#p" />
<use x="15" y="27" xlink:href="#p" />
<use x="18" y="27" xlink:href="#p" />
<use x="21" y="27" xlink:href="#p" />
<use x="24" y="27" xlink:href="#p" />
<use x="27" y="27" xlink:href="#p" />
<use x="33" y="27" xlink:href="#p" />
<use x="39" y="27" xlink:href="#p" />
<use x="45" y="27" xlink:href="#p" />
<use x="51" y="27" xlink:href="#p" />
<use x="57" y="27" xlink:href="#p" />
<use x="63" y="27" xlink:href="#p" />
<use x="69" y="27" xlink:href="#p" />
<use x="75" y="27" xlink:href="#p" />
<use x="78" y="27" xlink:href="#p" />
<use x="81" y="27" xlink:href="#p" />
<use x="84" y="27" xlink:href="#p" />
<use x="87" y="27" xlink:href="#p" />
<use x="90" y="27" xlink:href="#p" />
<use x="93" y="27" xlink:href="#p" />
<use x="45" y="30" xlink:href="#p" />
<use x="51" y="30" xlink:href="#p" />
<use x="63" y="30" xlink:href="#p" />
<use x="66" y="30" xlink:href="#p" />
<use x="9" y="33" xlink:href="#p" />
<use x="12" y="33" xlink:href="#p" />
<use x="15" y="33" xlink:href="#p" />
<use x="18" y="33" xlink:href="#p" />
<use x="21" y="33" xlink:href="#p" />
<use x="27" y="33" xlink:href="#p" />
<use x="30" y="33" xlink:href="#p" />
<use x="33" y="33" xlink:href="#p" />
<use x="36" y="33" xlink:href="#p" />
<use x="39" y="33" xlink:href="#p" />
<use x="45" y="33" xlink:href="#p" />
<use x="48" y="33" xlink:href="#p" />
<use x="51" y="33" xlink:href="#p" />
<use x="54" y="33" xlink:href="#p" />
<use x="57" y="33" xlink:href="#p" />
<use x="60" y="33" xlink:href="#p" />
<use x="63" y="33" xlink:href="#p" />
<use x="69" y="33" xlink:href="#p" />
<use x="72" y="33" xlink:href="#p" />
<use x="78" y="33" xlink:href="#p" />
<use x="84" y="33" xlink:href="#p" />
<use x="90" y="33" xlink:href="#p" />
<use x="21" y="36" xlink:href="#p" />
<use x="24" y="36" xlink:href="#p" />
<use x="30" y="36" xlink:href="#p" />
<use x="33" y="36" xlink:href="#p" />
<use x="36" y="36" xlink:href="#p" />
<use x="57" y="36" xlink:href="#p" />
<use x="60" y="36" xlink:href="#p" />
<use x="63" y="36" xlink:href="#p" />
<use x="66" y="36" xlink:href="#p" />
<use x="69" y="36" xlink:href="#p" />
<use x="75" y="36" xlink:href="#p" />
<use x="78" y="36" xlink:href="#p" />
<use x="81" y="36" xlink:href="#p" />
<use x="93" y="36" xlink:href="#p" />
<use x="9" y="39" xlink:href="#p" />
<use x="12" y="39" xlink:href="#p" />
<use x="18" y="39" xlink:href="#p" />
<use x="27" y="39" xlink:href="#p" />
<use x="30" y="39" xlink:href="#p" />
<use x="36" y="39" xlink:href="#p" />
<use x="42" y="39" xlink:href="#p" />
<use x="45" y="39" xlink:href="#p" />
<use x="51" y="39" xlink:href="#p" />
<use x="54" y="39" xlink:href="#p" />
<use x="57" y="39" xlink:href="#p" />
<use x="60" y="39" xlink:href="#p" />
<use x="69" y="39" xlink:href="#p" />
<use x="72" y="39" xlink:href="#p" />
<use x="15" y="42" xlink:href="#p" />
<use x="18" y="42" xlink:href="#p" />
<use x="21" y="42" xlink:href="#p" />
<use x="36" y="42" xlink:href="#p" />
<use x="39" y="42" xlink:href="#p" />
<use x="42" y="42" xlink:href="#p" />
<use x="54" y="42" xlink:href="#p" />
<use x="69" y="42" xlink:href="#p" />
<use x="78" y="42" xlink:href="#p" />
<use x="84" y="42" xlink:href="#p" />
<use x="90" y="42" xlink:href="#p" />
<use x="15" y="45" xlink:href="#p" />
<use x="18" y="45" xlink:href="#p" />
<use x="21" y="45" xlink:href="#p" />
<use x="27" y="45" xlink:href="#p" />
<use x="33" y="45" xlink:href="#p" />
<use x="36" y="45" xlink:href="#p" />
<use x="42" y="45" xlink:href="#p" />
<use x="48" y="45" xlink:href="#p" />
<use x="51" y="45" xlink:href="#p" />
<use x="54" y="45" xlink:href="#p" />
<use x="57" y="45" xlink:href="#p" />
<use x="60" y="45" xlink:href="#p" />
<use x="84" y="45" xlink:href="#p" />
<use x="87" y="45" xlink:href="#p" />
<use x="12" y="48" xlink:href="#p" />
<use x="15" y="48" xlink:href="#p" />
<use x="18" y="48" xlink:href="#p" />
<use x="24" y="48" xlink:href="#p" />
<use x="30" y="48" xlink:href="#p" />
<use x="33" y="48" xlink:href="#p" />
<use x="39" y="48" xlink:href="#p" />
<use x="45" y="48" xlink:href="#p" />
<use x="57" y="48" xlink:href="#p" />
<use x="63" y="48" xlink:href="#p" />
<use x="66" y="48" xlink:href="#p" />
<use x="69" y="48" xlink:href="#p" />
<use x="75" y="48" xlink:href="#p" />
<use x="81" y="48" xlink:href="#p" />
<use x="93" y="48" xlink:href="#p" />
<use x="18" y="51" xlink:href="#p" />
<use x="21" y="51" xlink:href="#p" />
<use x="24" y="51" xlink:href="#p" />
<use x="27" y="51" xlink:href="#p" />
<use x="30" y="51" xlink:href="#p" />
<use x="39" y="51" xlink:href="#p" />
<use x="51" y="51" xlink:href="#p" />
<use x="54" y="51" xlink:href="#p" />
<use x="57" y="51" xlink:href="#p" />
<use x="63" y="51" xlink:href="#p" />
<use x="72" y="51" xlink:href="#p" />
<use x="78" y="51" xlink:href="#p" />
<use x="84" y="51" xlink:href="#p" />
<use x="87" y="51" xlink:href="#p" />
<use x="9" y="54" xlink:href="#p" />
<use x="12" y="54" xlink:href="#p" />
<use x="15" y="54" xlink:href="#p" />
<use x="18" y="54" xlink:href="#p" />
<use x="21" y="54" xlink:href="#p" />
<use x="24" y="54" xlink:href="#p" />
<use x="33" y="54" xlink:href="#p" />
<use x="45" y="54" xlink:href="#p" />
<use x="51" y="54" xlink:href="#p" />
<use x="54" y="54" xlink:href="#p" />
<use x="57" y="54" xlink:href="#p" />
<use x="66" y="54" xlink:href="#p" />
<use x="69" y="54" xlink:href="#p" />
<use x="72" y="54" xlink:href="#p" />
<use x="75" y="54" xlink:href="#p" />
<use x="78" y="54" xlink:href="#p" />
<use x="81" y="54" xlink:href="#p" />
<use x="90" y="54" xlink:href="#p" />
<use x="12" y="57" xlink:href="#p" />
<use x="27" y="57" xlink:href="#p" />
<use x="30" y="57" xlink:href="#p" />
<use x="45" y="57" xlink:href="#p" />
<use x="48" y="57" xlink:href="#p" />
<use x="60" y="57" xlink:href="#p" />
<use x="66" y="57" xlink:href="#p" />
<use x="78" y="57" xlink:href="#p" />
<use x="84" y="57" xlink:href="#p" />
<use x="87" y="57" xlink:href="#p" />
<use x="9" y="60" xlink:href="#p" />
<use x="12" y="60" xlink:href="#p" />
<use x="33" y="60" xlink:href="#p" />
<use x="39" y="60" xlink:href="#p" />
<use x="48" y="60" xlink:href="#p" />
<use x="60" y="60" xlink:href="#p" />
<use x="63" y="60" xlink:href="#p" />
<use x="66" y="60" xlink:href="#p" />
<use x="72" y="60" xlink:href="#p" />
<use x="75" y="60" xlink:href="#p" />
<use x="78" y="60" xlink:href="#p" />
<use x="81" y="60" xlink:href="#p" />
<use x="87" y="60" xlink:href="#p" />
<use x="93" y="60" xlink:href="#p" />
<use x="9" y="63" xlink:href="#p" />
<use x="15" y="63" xlink:href="#p" />
<use x="18" y="63" xlink:href="#p" />
<use x="21" y="63" xlink:href="#p" />
<use x="24" y="63" xlink:href="#p" />
<use x="27" y="63" xlink:href="#p" />
<use x="30" y="63" xlink:href="#p" />
<use x="33" y="63" xlink:href="#p" />
<use x="39" y="63" xlink:href="#p" />
<use x="42" y="63" xlink:href="#p" />
<use x="45" y="63" xlink:href="#p" />
<use x="48" y="63" xlink:href="#p" />
<use x="51" y="63" xlink:href="#p" />
<use x="54" y="63" xlink:href="#p" />
<use x="57" y="63" xlink:href="#p" />
<use x="69" y="63" xlink:href="#p" />
<use x="72" y="63" xlink:href="#p" />
<use x="78" y="63" xlink:href="#p" />
<use x="87" y="63" xlink:href="#p" />
<use x="9" y="66" xlink:href="#p" />
<use x="15" y="66" xlink:href="#p" />
<use x="21" y="66" xlink:href="#p" />
<use x="24" y="66" xlink:href="#p" />
<use x="30" y="66" xlink:href="#p" />
<use x="33" y="66" xlink:href="#p" />
<use x="36" y="66" xlink:href="#p" />
<use x="42" y="66" xlink:href="#p" />
<use x="51" y="66" xlink:href="#p" />
<use x="54" y="66" xlink:href="#p" />
<use x="63" y="66" xlink:href="#p" />
<use x="69" y="66" xlink:href="#p" />
<use x="75" y="66" xlink:href="#p" />
<use x="78" y="66" xlink:href="#p" />
<use x="81" y="66" xlink:href="#p" />
<use x="90" y="66" xlink:href="#p" />
<use x="9" y="69" xlink:href="#p" />
<use x="15" y="69" xlink:href="#p" />
<use x="18" y="69" xlink:href="#p" />
<use x="21" y="69" xlink:href="#p" />
<use x="24" y="69" xlink:href="#p" />
<use x="27" y="69" xlink:href="#p" />
<use x="30" y="69" xlink:href="#p" />
<use x="33" y="69" xlink:href="#p" />
<use x="36" y="69" xlink:href="#p" />
<use x="42" y="69" xlink:href="#p" />
<use x="54" y="69" xlink:href="#p" />
<use x="60" y="69" xlink:href="#p" />
<use x="69" y="69" xlink:href="#p" />
<use x="72" y="69" xlink:href="#p" />
<use x="75" y="69" xlink:href="#p" />
<use x="78" y="69" xlink:href="#p" />
<use x="81" y="69" xlink:href="#p" />
<use x="87" y="69" xlink:href="#p" />
<use x="90" y="69" xlink:href="#p" />
<use x="93" y="69" xlink:href="#p" />
<use x="33" y="72" xlink:href="#p" />
<use x="45" y="72" xlink:href="#p" />
<use x="48" y="72" xlink:href="#p" />
<use x="57" y="72" xlink:href="#p" />
<use x="60" y="72" xlink:href="#p" />
<use x="63" y="72" xlink:href="#p" />
<use x="69" y="72" xlink:href="#p" />
<use x="81" y="72" xlink:href="#p" />
<use x="84" y="72" xlink:href="#p" />
<use x="87" y="72" xlink:href="#p" />
<use x="90" y="72" xlink:href="#p" />
<use x="93" y="72" xlink:href="#p" />
<use x="9" y="75" xlink:href="#p" />
<use x="12" y="75" xlink:href="#p" />
<use x="15" y="75" xlink:href="#p" />
<use x="18" y="75" xlink:href="#p" />
<use x="21" y="75" xlink:href="#p" />
<use x="24" y="75" xlink:href="#p" />
<use x="27" y="75" xlink:href="#p" />
<use x="33" y="75" xlink:href="#p" />
<use x="39" y="75" xlink:href="#p" />
<use x="48" y="75" xlink:href="#p" />
<use x="51" y="75" xlink:href="#p" />
<use x="54" y="75" xlink:href="#p" />
<use x="63" y="75" xlink:href="#p" />
<use x="66" y="75" xlink:href="#p" />
<use x="69" y="75" xlink:href="#p" />
<use x="75" y="75" xlink:href="#p" />
<use x="81" y="75" xlink:href="#p" />
<use x="84" y="75" xlink:href="#p" />
<use x="87" y="75" xlink:href="#p" />
<use x="9" y="78" xlink:href="#p" />
<use x="27" y="78" xlink:href="#p" />
<use x="45" y="78" xlink:href="#p" />
<use x="48" y="78" xlink:href="#p" />
<use x="66" y="78" xlink:href="#p" />
<use x="69" y="78" xlink:href="#p" />
<use x="81" y="78" xlink:href="#p" />
<use x="9" y="81" xlink:href="#p" />
<use x="15" y="81" xlink:href="#p" />
<use x="18" y="81" xlink:href="#p" />
<use x="21" y="81" xlink:href="#p" />
<use x="27" y="81" xlink:href="#p" />
<use x="33" y="81" xlink:href="#p" />
<use x="36" y="81" xlink:href="#p" />
<use x="45" y="81" xlink:href="#p" />
<use x="51" y="81" xlink:href="#p" />
<use x="54" y="81" xlink:href="#p" />
<use x="60" y="81" xlink:href="#p" />
<use x="69" y="81" xlink:href="#p" />
<use x="72" y="81" xlink:href="#p" />
<use x="75" y="81" xlink:href="#p" />
<use x="78" y="81" xlink:href="#p" />
<use x="81" y="81" xlink:href="#p" />
<use x="87" y="81" xlink:href="#p" />
<use x="90" y="81" xlink:href="#p" />
<use x="93" y="81" xlink:href="#p" />
<use x="9" y="84" xlink:href="#p" />
<use x="15" y="84" xlink:href="#p" />
<use x="18" y="84" xlink:href="#p" />
<use x="21" y="84" xlink:href="#p" />
<use x="27" y="84" xlink:href="#p" />
<use x="33" y="84" xlink:href="#p" />
<use x="39" y="84" xlink:href="#p" />
<use x="57" y="84" xlink:href="#p" />
<use x="63" y="84" xlink:href="#p" />
<use x="78" y="84" xlink:href="#p" />
<use x="84" y="84" xlink:href="#p" />
<use x="87" y="84" xlink:href="#p" />
<use x="90" y="84" xlink:href="#p" />
<use x="93" y="84" xlink:href="#p" />
<use x="9" y="87" xlink:href="#p" />
<use x="15" y="87" xlink:href="#p" />
<use x="18" y="87" xlink:href="#p" />
<use x="21" y="87" xlink:href="#p" />
<use x="27" y="87" xlink:href="#p" />
<use x="33" y="87" xlink:href="#p" />
<use x="36" y="87" xlink:href="#p" />
<use x="42" y="87" xlink:href="#p" />
<use x="45" y="87" xlink:href="#p" />
<use x="54" y="87" xlink:href="#p" />
<use x="57" y="87" xlink:href="#p" />
<use x="60" y="87" xlink:href="#p" />
<use x="63" y="87" xlink:href="#p" />
<use x="66" y="87" xlink:href="#p" />
<use x="72" y="87" xlink:href="#p" />
<use x="75" y="87" xlink:href="#p" />
<use x="78" y="87" xlink:href="#p" />
<use x="81" y="87" xlink:href="#p" />
<use x="84" y="87" xlink:href="#p" />
<use x="87" y="87" xlink:href="#p" />
<use x="90" y="87" xlink:href="#p" />
<use x="9" y="90" xlink:href="#p" />
<use x="27" y="90" xlink:href="#p" />
<use x="33" y="90" xlink:href="#p" />
<use x="36" y="90" xlink:href="#p" />
<use x="39" y="90" xlink:href="#p" />
<use x="42" y="90" xlink:href="#p" />
<use x="51" y="90" xlink:href="#p" />
<use x="54" y="90" xlink:href="#p" />
<use x="63" y="90" xlink:href="#p" />
<use x="69" y="90" xlink:href="#p" />
<use x="75" y="90" xlink:href="#p" />
<use x="78" y="90" xlink:href="#p" />
<use x="84" y="90" xlink:href="#p" />
<use x="90" y="90" xlink:href="#p" />
<use x="9" y="93" xlink:href="#p" />
<use x="12" y="93" xlink:href="#p" />
<use x="15" y="93" xlink:href="#p" />
<use x="18" y="93" xlink:href="#p" />
<use x="21" y="93" xlink:href="#p" />
<use x="24" y="93" xlink:href="#p" />
<use x="27" y="93" xlink:href="#p" />
<use x="33" y="93" xlink:href="#p" />
<use x="36" y="93" xlink:href="#p" />
<use x="42" y="93" xlink:href="#p" />
<use x="54" y="93" xlink:href="#p" />
<use x="60" y="93" xlink:href="#p" />
<use x="66" y="93" xlink:href="#p" />
<use x="75" y="93" xlink:href="#p" />
<use x="78" y="93" xlink:href="#p" />
<use x="81" y="93" xlink:href="#p" />
<use x="84" y="93" xlink:href="#p" />
<use x="87" y="93" xlink:href="#p" />
</g>
</svg>